<svg xmlns="http://www.w3.org/2000/svg" width="447" height="820"><path fill="#f6efea" stroke="#f6efea" d="m358.5 52 10.5.5-10.5.5zm-19 1 6.5.5-6.5.5zm40 0 2.5.5-2.5.5zm-48 1 2.5.5-2.5.5zm-6 1 2.5.5-2.5.5zm-5 1 2.5.5-2.5.5zm45 3-1 2zm-3 2-1 2zm-5 4-2 3zm-11 4 3.5.5-3.5.5zm-26 4-.5 1.5-.5 1.5-.5-1.5zm3 4 1 2zm3 2 6 7zm-28 8 14.5.5-14.5.5zm18 1 2.5.5-2.5.5zm18 0 1 2zm-13 1 2.5.5-2.5.5zm-87 1-1 2zm53 1-1 2zm49 0q3 1.5 0 3l-1.5-.5 2-1zm-107 2-1 2zm-3 2-1 2zm65 1 1 2zm-68 1-1 2zm71 1 1 2zm4 3 1 2zm-84 2-1 2zm87 1 6 7zm-90 1-1 2zm-3 2-1 2zm62 2 5.5.5-5.5.5zm-66 1-2 3zm78 0 2.5.5-2.5.5zm-22 1 1.5.5-2.5 1.5zm-60 2-2 3zm111 3-1 2zm-116 1-1 2zm65 2 1 2zm-70 2-2 3zm75 1 2 3zm-80 3-5 6zm85 1 7 8zm8 9 1 2zm-42 1 15.5.5-15.5.5zm-5 1 2.5.5-2.5.5zm25 0 3.5.5-3.5.5zm-85 1-8 9zm91 0 2.5.5-2.5.5zm-38 3-1.5 2.5 1.5 2.5-2.5-1zm58 0 1.5 2.5h-1l-.5-1.5-2 1v-1zm-56 5 1 2zm3 2 2 3zm-72 5-4 5zm82 5 1 2zm-88 2-2 3zm91 2 1 2zm-75 1-1.5 2.5-7.5 10.5-2.5-.5zm-20 2-2 3zm64 0 8.5.5-8.5.5zm33 0 1 2zm-19 1 3.5.5-3.5.5zm5 1 2.5.5-2.5.5zm-30 1-1 2zm-57 2-1 2zm104 0 1.5 2.5h-1zm-107 4-2 3zm15 3q3 1.5 0 3l-2.5-.5zm-18 1-1 2zm17 3-1 2zm-20 1-1 2zm17 0-1 2zm1 2-.5 1.5-1.5 2.5.5-1.5zm-3 1-1 2zm-18 2-2 3zm16 1-2 3zm2 1-.5 1.5-1.5 2.5.5-1.5zm-21 2-1 2zm16 1-1 2zm-2 3-1 2zm-17 1-1 2zm69 0 2.5.5-2.5.5zm20 0 2.5.5-2.5.5zm-31 4-1 2zm-61 1-1 2zm69 11 4 5zm-4 13 2.5.5-2.5.5zm13 3 .5 4.5h-1zm-41 6-5 6zm-7 8-2 3zm-25 5 .5 2.5h-1zm21 1-1 2zm-29 4 .5 2.5h-1zm7 3 .5 2.5h-1zm-29 3 .5 2.5h-1zm21 1 .5 4.5h-1zm-25 15 .5 2.5h-1zm290 1 .5 1.5-1.5 2.5-.5-1.5zm-257 3 .5 3.5h-1zm254 2 1.5.5-2 1 .5 1.5-2.5-.5zm-262 2 .5 4.5h-1zm16 1 .5 2.5h-1zm-43 1 .5 2.5h-1zm36 2 .5 3.5h-1zm251 0-1 2zm-6 2-2 3zm-239 1 .5 2.5h-1zm243 0-3 4zm-248 3 .5 2.5h-1zm239 0-1 2zm-3 2-1 2zm-275 2 .5 2.5h-1zm31 0 .5 2.5h-1zm12 0 .5 5.5h-1zm229 0-1 2zm6 2-4 5zm-237 2 .5 2.5h-1zm63 0 8.5.5-8.5.5zm-7 1 2.5.5-2.5.5zm21 0 2.5.5-2.5.5zm6 1 2.5.5-2.5.5zm-125 3 .5 3.5h-1zm271 0-1 2zm-3 2-1 2zm-177 1 5.5.5-5.5.5zm13 0 5.5.5-5.5.5zm10 1 2.5.5-2.5.5zm40 0 2.5.5-2.5.5zm-34 1 2.5.5-2.5.5zm143 0-1 2zm-187 1v3l-1.5-.5q.8 2.3-1.5 1.5l-3.5 2.5zm156 1 2.5.5-2.5.5zm-58 1 2.5.5-2.5.5zm53 0 2.5.5-2.5.5zm-46 1 3.5.5-3.5.5zm39 0 3.5.5-3.5.5zm-28 1 23.5.5-23.5.5zm-193 2 .5 25.5h-1zm172 7 2.5.5-2.5.5zm-132 1 .5 2.5h-1zm138 0 2.5.5-2.5.5zm43 0 2.5.5-2.5.5zm-36 1 5.5.5-5.5.5zm26 0 5.5.5-5.5.5zm-170 6 .5 5.5h-1zm0 13 .5 4.5h-1zm-40 8 .5 4.5h-1zm39 0 .5 2.5h-1zm-38 10 .5 2.5h-1zm1 7 .5 2.5h-1zm2 11 .5 2.5h-1zm26 6 .5 3.5h-1zm-1 8 .5 25.5h-1zm1 33 .5 3.5h-1zm1 8 .5 2.5h-1zm111 23-2 3-1.5-.5zm-5 3 .5 1.5q-2 4.5-4 1l3-1zm-5 3 .5 2.5-2.5 2.5zm-97 2 1 2zm94 0-1 2zm-91 1 .5 1.5-2 1zm1 3 .5 2-2-.5zm81 2-1 2zm5 0-8 9zm-86 1q2.6-.8 1.5 2.5l1 2h-1zm77 2-11 12zm-2 9-1 2zm-3 4-1 2zm-8 1-1 2zm-2 3-1 2zm6 2-1 2zm-3 5-1 2zm-110 5q5.4-1.9 4.5 1.5l-1.5-.5q-4 .8-3-1Zm107 0 .5 1.5-1.5 2.5-.5-1.5zm-10 14 .5 5.5h-1zm3 8 .5 2.5h-1zm-3 5 1.5 9.5h-1zm-6 12 1.5 2.5h-1zm3 22 2.5 1 1 2.5z"/><path fill="#b6825c" stroke="#b6825c" d="m338.5 46 7.5.5-7.5.5zm34 0 7.5.5-7.5.5zm-42 1 4.5.5-4.5.5zm54 0 4.5.5-4.5.5zm-60 1 3.5.5-3.5.5zm67 0 3.5.5-3.5.5zm-72 1 3.5.5-3.5.5zm77 0 3.5.5-3.5.5zm-81 1 2.5.5-2.5.5zm87 0 2.5.5-2.5.5zm-92 1 2.5.5-2.5.5zm96 0 2.5.5-2.5.5zm-100 1 2.5.5-2.5.5zm-4 1 2.5.5-2.5.5zm-4 1 2.5.5-2.5.5zm101 1 3.5.5-3.5.5zm-108 1 2.5.5-5.5 1.5v-1zm100 1 1.5.5q-10.4 3.6-16.5 11.5l6-7zm-115 4 1.5.5-10.5 4.5v-1zm-12 5 1.5.5q-70.6 30.9-118 85-29.5 32-48.5 74.5l-.5-1.5q26.9-56.6 70.5-96.5 40.6-37.9 95-62Zm114 5 2.5.5-2.5.5zm4 1q17.4 5.1 27.5 17.5l4 7q-1 2.5-5.5 1.5v-1q5.4 1.9 4.5-1.5L404.5 85q-8.8-8.2-22-12zm3 24 19.5.5-19.5.5zm-11 1 6.5.5-6.5.5zm0 2q11.6 5.4 18.5 15.5l7 14h-1l-4-10-11.5-12.5-8-5zm-24 25 15.5.5-15.5.5zm19 1 4.5.5-4.5.5zm-19 1 13.5 12.5 5 10h-1q-5.1-12.9-15.5-20.5zm26 0 3.5.5-3.5.5zm5 1 3.5.5-3.5.5zm8 2 5.5 1.5-2.5.5-3-1zm11 1 .5 3-2-.5zm-72 15 4.5.5-4.5.5zm7 1 2.5.5-2.5.5zm-10 1 9.5 8.5 8 12 3 10h-1q-4.7-18.3-17.5-28.5zm15 0 2.5.5-2.5.5zm4 1 2.5.5-2.5.5zm7 2 8.5 3.5-1.5.5-7-3zm18 0 .5 2.5h-1zm-8 4 8 4 1-4 .5 5-9.5-4zm-59 12 4.5.5-4.5.5zm-5 1 15.5 16.5 5 12h-1l-5-12-13.5-14.5q-2.8.7-1-2Zm13 0 2.5.5-2.5.5zm8 2 2.5.5-2.5.5zm4 1 6.5 2.5-1.5.5-5-2zm8 3q9 3 15 9l1-2 .5 3-16.5-9zm-56 13 4.5.5-4.5.5zm9 1 3.5.5-3.5.5zm-10 1q11.1 8.9 16.5 23.5h-1l-4-9zm15 0 5.5 1.5-2.5.5-3-1zm7 2 17 8 5.5 4.5-1.5-.5-21-11zm23 7 .5 2.5h-1zm-71 6 4.5.5-4.5.5zm7 1 3.5.5-3.5.5zm-7 1 8.5 7.5 7 12h-1q-4.2-10.8-12.5-17.5zm13 0 2.5.5-2.5.5zm4 1 3.5 1.5-1.5.5zm5 2 9.5 4.5-1.5-.5-8-3zm11 5 10 7 1-3 .5 4-10.5-6zm10 0 .5 2.5h-1zm-54 9 3.5.5-3.5.5zm-11 1q9 6.5 13.5 17.5h-1q-3.9-9.6-11.5-15.5-2.8.7-1-2Zm16 0 4.5 1.5-1.5.5-3-1zm6 2q10.6 3.1 17.5 9l.5-2 .5 4-12.5-8-6-2zm16 1 1.5 4.5h-1zm-165 1 .5 1.5-2.5 4.5-.5-1.5zm-3 7 .5 1.5-2.5 5.5-.5-1.5zm-3 8 .5 1.5-7.5 22.5-.5-2.5zm117 2 4.5.5-4.5.5zm13 0 2.5.5-2.5.5zm-17 1 2.5.5-2.5.5zm26 1 9 4 1.5-.5q1.1 3.3-1.5 2.5l-9-5zm-31 3q8.1 2.9 12.5 9.5 3.9 3 3 9.5l-7-1.5 3.5-.5 2.5 1v-3.5l-7.5-9.5-6-3zm190 2 .5 2.5h-1zm-3 2 .5 3.5h-1zm4 3 .5 16.5h-1zm-30 1q2.8 1.2.5 2.5l-.5 14.5z" opacity=".671"/><path fill="#b6825c" stroke="#b6825c" d="m363.5 260 5.5 8.5h-1zm22 1 .5 1.5q-2.8 8.7-9.5 13.5l-2 1 1-2 4.5-3.5zm-198 4 5.5.5-5.5.5zm14 0 6.5.5-6.5.5zm135 0q9.7 9.5 13.5 24l8-6.5 2.5-7.5.5 2.5q-2.1 7.4-7.5 11.5l-4.5 1q-2.9-13.4-11.5-22l-1.5.5zm-154 1 3.5.5-6.5 1.5v-1zm-98 1 .5 2.5h-1zm92 1 1.5.5q-16.3 6.2-26 19l-9.5 19.5-.5-1.5q5.6-16.9 17.5-27.5zm-93 3 .5 2.5h-1zm228 1 8.5 13.5h-1l-6.5-10.5-1 10zm59 0 2.5 4.5-2-1zm-288 3 .5 3.5h-1zm308 0 .5 3.5-1.5 3.5-.5-2.5zm-129 3q6.7 5.3 8.5 15.5h-1q-3-10.2-7.5-15.5Zm26 0 7.5 11.5-2-1zm49 0 .5 3.5h-1zm-255 2 .5 2.5h-1zm158 0 4.5 7.5h-1zm-1 2 .5 2.5-1.5 2.5-.5-1.5zm97 2 .5 2.5q-2.6 7.4-8.5 11.5l-1.5-.5 6-5zm-255 1 .5 3.5h-1zm180 0 .5 3.5h-1zm127 1 .5 1.5-1.5 2.5-.5-1.5zm-102 1 .5 3.5h-1zm25 0 .5 2.5h-1zm-74 1 .5 1.5q-3.3 5.7-12.5 5.5v-1q7.7.7 10.5-3.5zm8 1 2.5 6.5h-1zm77 0 2.5 5.5h-1zm-62 1 .5 1.5-5.5 7.5-4 1v-1h2l5.5-5.5zm-64 1 11.5.5-11.5.5zm100 0 2.5 6.5h-1zm14 0 .5 2.5-5.5 7.5-5 2v-1l6.5-3zm76 0 .5 1.5-15 23.5q-2.7-1.1-2 1.5-15.4 16.6-37.5 26.5v-1l12-6 21.5-16 12-14.5zm-306 1 .5 2.5h-1zm107 0 4.5.5-4.5.5zm25 0 4.5.5-4.5.5zm73 0 .5 1.5-6.5 8.5-3 1v-1l6.5-4.5zm-102 1 2.5.5-2.5.5zm35 0 4.5.5-4.5.5zm-39 1 2.5.5-9.5 3.5v-1zm92 1 2.5 7.5h-1zm-23 2 1.5 2.5-2-1zm-169 2 .5 4.5h-1zm89 0-1 2-12.5 9.5q-9.7 10.8-14 25.5l-2-.5 11-20 10.5-11.5zm-26 9 .5 2.5h-1zm-64 1 .5 6.5h-1zm63 3 .5 3.5h-1zm-1 5 .5 3.5h-1zm-1 6 .5 4.5h-1zm-1 7 .5 3.5h-1zm191 14 1.5.5-8.5 3.5v-1zm-251 4 .5 6.5h-1zm93 0 4.5.5-4.5.5zm29 0 4.5.5-4.5.5zm-35 1 2.5.5-2.5.5zm44 0 4.5.5-4.5.5zm-48 1 2.5.5-7.5 2.5v-1zm56 0 4.5.5-4.5.5zm95 0 2.5.5-5.5 1.5v-1zm-89 1 4.5.5-4.5.5zm7 1 2.5.5-2.5.5zm75 0 2.5.5-2.5.5zm-69 1 3.5.5-3.5.5zm64 0 3.5.5-3.5.5zm-58 1 5.5.5-5.5.5zm52 0 3.5.5-3.5.5zm-144 1-1 2-9.5 7.5-5.5 9.5-.5-1.5q4-9 11.5-14.5zm100 0 6.5.5-6.5.5zm35 0 5.5.5-5.5.5zm-22 1 14.5.5-14.5.5zm-184 4 .5 4.5h-1zm1 8 .5 3.5h-1zm1 7 .5 3.5h-1zm52 0 .5 1.5-2.5 6.5-.5-2.5zm-51 6 .5 2.5h-1zm48 3 .5 2.5h-1zm-47 1 .5 3.5h-1zm46 3 .5 2.5h-1zm-45 2 .5 2.5h-1zm44 3 .5 4.5h-1zm-43 1 .5 2.5h-1zm1 4 8.5 26.5h-1l-8-24zm41 1 .5 9.5h-1zm0 22 .5 8.5h-1zm-32 5 2.5 6.5h-1zm165 4-1 2-7 3v-1zm-132 3 .5 4.5h-1zm-30 1 3.5 7.5h-1zm151 1 1.5.5-6.5 2.5v-1zm-9 3 2.5.5-10.5 3.5v-1zm-111 3 .5 3.5h-1zm132 0 .5 7.5h-1zm-159 2 13.5 26.5-2-1-12-24zm123 0 2.5.5-7.5 2.5v-1zm-8 3 1.5.5q-18.5 6.5-31 19l-10 13-3.5 8.5-.5-1.5q6.4-15.6 18.5-25.5 10.7-8.8 25-14Zm-87 1 .5 2.5h-1zm130 3 .5 4.5h-1zm-129 1 .5 2.5h-1zm1 4 .5 3.5h-1zm127 1 .5 2.5h-1zm-126 4 .5 2.5h-1zm125 0 .5 2.5h-1zm-124 4 .5 2.5h-1zm121 6 .5 1.5-9 18-13 15.5-22.5 15 1-2q17.8-8.7 29.5-23.5 8.7-10.3 13.5-24.5Zm-139 1 20.5 32.5 31 43 10 17h-1l-13-21-38-54zm21 3 2.5 6.5h-1zm3 8q13 34 32.5 61.5l-2-1-12-19-16-32zm33 6 .5 2.5h-1zm-109 1 14.5.5-14.5.5zm-11 1 5.5.5-5.5.5zm31 0 3.5.5-3.5.5zM41 491l8 .5-7 1q11.5 24 30.5 40.5 10.4 9.1 24.5 14.5l-1.5.5Q77 540 64 526.5 49.1 511.4 41 491Zm48.5 0 2.5.5-2.5.5zm4 1 2.5.5-2.5.5zm10 3q17.8 6.3 28.5 19.5l14 22-1 1 1.5 2.5-12-13q-9.4-9.1-22.5-14.5l1.5-.5q17.5 8 29 22l.5-1.5q-8.5-16.5-22.5-27.5l-17-9zm67 1 .5 2.5h-1zm-1 7 .5 13.5h-1zm-77 3 3.5.5-3.5.5zm-3 2 15 6 26 16 19 17q14.8 7.2 25.5 18.5l-3.5-2.5-21-14-26-22-20-12-15-6zm11 0 10.5 3.5-1.5.5-9-3zm70 13 .5 4.5h-1zm33 1 1.5.5-3.5 1.5v-1zm-5 2 1.5.5-12 8-1.5 2.5.5-1.5 5.5-6.5zm-27 3 .5 3.5h-1zm1 6 .5 3.5h-1zm13 3 .5 1.5-1.5 3.5-.5-2.5zm-12 2 .5 3.5h-1zm10 4 .5 12.5h-1zm-79 8 6.5 1.5-3.5.5-3-1zm8 2 3.5.5-3.5.5zm7 1 16.5.5-16.5.5zm26 0 12 5 18.5 14q-1.1 2.7 1.5 2 19.5 19 30.5 46.5h-1q-13.1-32.9-38.5-53.5-9.3-8.7-23-13zm39 4 .5 2.5h-1zm1 4 2.5 6.5h-1q-3-2.5-1.5-6.5Zm3 8 23.5 41.5 10 21h-1l-10-21-19-32-4-8zm20 53q7.5 13 11.5 29.5h-1q-3.6-15.9-11-28zm14 11 3.5 7.5h-1zm4 9 1.5 3.5h-1zm2 5 5.5 16.5h-1zm-7 9 .5 2.5h-1zm1 4 .5 2.5h-1zm1 4 .5 2.5h-1zm1 4 .5 3.5h-1zm11 0 .5 2.5h-1zm1 4 .5 2.5h-1zm-11 2 .5 2.5h-1zm12 2 .5 3.5h-1zm-11 3 .5 2.5h-1zm12 2 .5 3.5h-1zm-11 4 .5 4.5h-1zm12 2 .5 4.5h-1zm-11 7 .5 18.5h-1zm12 0 .5 6.5h-1zm1 15 .5 6.5h-1zm-14 9 .5 3.5h-1zm-1 7 .5 2.5h-1zm14 0 .5 3.5h-1zm-15 5 .5 2.5h-1zm14 1 .5 3.5h-1zm-15 3 .5 2.5h-1zm14 2 .5 2.5h-1zm-15 2 .5 2.5-2.5 5.5-.5-1.5zm14 2 .5 2.5h-1zm-1 4 .5 2.5q-6.5 18-20.5 28.5l-7 4 1-2q9-4 14.5-11.5 7.9-8.6 11.5-21.5Zm-16 3 .5 1.5q-8.5 20-24.5 32.5l-3 2 2-3 12.5-11.5q8-9 12.5-21.5Zm-14 32 1.5.5-12.5 4.5v-1zm-15 4 .5 2-2-.5z" opacity=".671"/><path fill="#fdfdfd" stroke="#fdfdfd" d="m346.5 53 32.5.5-13.5 5.5-15 11-1-1h-18q-7.7 1.3-12.5 5.5-.7 2.3 1.5 1.5L334 87.5l4 6-1.5-.5-24-6h-14l-5 1-7.5 4.5q-1.2 3.8 2.5 2.5l12.5 8 11 14.5-1.5-.5q-17-7-40-8l-10 2-5.5 4.5q-1.2 3.8 2.5 2.5 12.3 6.2 20.5 16.5l5 8-1.5-.5-22-5-23-1q-9.5 1.5-14.5 7.5-.7 2.3 1.5 1.5l15.5 12.5 9 14-1.5.5-18-6-17-1-9 2-5.5 4.5-1 3.5q11.9 3.3 19 12.5l5 9-2.5.5-1-1h-22l-7 2-9.5 6q-1.5 3.7 1.5 3 11.5 3 17.5 11.5l3 7v5l-3.5-2.5q-6.2-4.8-19-3-15.4 3.6-23.5 14.5l-7 10-9 20-4 14-2.5 20.5-2.5-7.5-2-18-1-1v-19l5-26 9-25q10.7-23.3 26-42l-6 5-21 29-13 27-6 21-1 11-1 1v27l4 21 6 21 1 16-1 1-1 12-6 16-3 14q1.7 6.2-1 8v25l1 1v10l1 1 1 12 7 27h-1l-20-41-12-40-5-28v-9l-1-1v-43l1-1v-9l1-1 2-17 6-24 8-23 15-31q24.2-41.3 58.5-72.5 36.9-33.6 85-56l41-15 23-5 17-1z"/><path fill="#fdfdfd" stroke="#fdfdfd" d="m380.5 281-.5 1.5q-3.9 9.6-11.5 15.5-18.2 17.3-46 25l-15 3h-9l-1 1h-19l-1-1h-9l-1-1-11-1-46-14-12-1-1-1h-18l-9 2-7 4 3-4 17-8q4.7 1.3 6-1h17l56 13 17 1 1 1h23l1-1 18-2 24-8q20.7-8.3 34-24Zm-156 182-3 4-16.5 14.5q-10 11.5-17 26l-6 20-1.5 10.5-1.5-12.5 1-1 1-13 7-16q7.3-12.2 18.5-20.5z"/><path fill="#b07a53" stroke="#b07a53" d="m343.5 52 14.5.5-14.5.5zm26 0 8.5.5-8.5.5zm-36 1 5.5.5-5.5.5zm-7 1 4.5.5-4.5.5zm52 0 2.5.5-2.5.5zm30 0 5.5.5-5.5.5zm-86 1 2.5.5-2.5.5zm-9 2 2.5.5-2.5.5zm-4 1 2.5.5-2.5.5zm-4 1 2.5.5-2.5.5zm61 0-1 2zm-65 1 2.5.5-2.5.5zm62 1-1 2zm-3 2-3 4zm-6 5-2 3-3.5-.5q4.3.3 5.5-2.5Zm-79 1 1.5.5-3.5 1.5v-1zm58 0 12.5.5-12.5.5zm-65 3 1.5.5-3.5 1.5v-1zm53 1-.5 1.5-.5 1.5-.5-1.5zm-60 2 1.5.5-10.5 5.5 1-2zm63 2 1 2zm4 3 4 5zm-88 6-1 2zm93 0 2 3zm-38 2 3.5.5-3.5.5zm17 0 3.5.5-3.5.5zm6 1 2.5.5-2.5.5zm-85 1-1 2-2 1 1-2zm90 0 2.5.5-2.5.5zm13 0 1 2zm-48 1-2 3zm39 0 2.5.5-2.5.5zm-99 2-1 2zm110 0 1.5 3-4-1.5zm-113 2-1 2zm67 1 1 2zm-70 1-1 2zm73 1 2 3zm-76 1-1 2zm-3 2-1 2zm83 0 8 9zm-86 2-1 2zm-3 2-1 2zm-3 2-2 3zm-4 3-2 3zm62 0 16.5.5-16.5.5zm19 1 3.5.5-3.5.5zm24 0 1 2zm-18 1 2.5.5-2.5.5zm-91 1-3 4zm59 0-1 2q-2.2-.7-1.5 1.5h-1l1.5-2.5zm36 0 2.5.5-2.5.5zm16 1 1 2zm-5 2 2.5.5-2.5.5zm-111 1-3 4zm118 0 1.5 2.5h-1l-.5-1.5-1.5.5zm-51 2 3.5 2.5-1.5-.5zm-72 2-3 4zm77 1 3 4zm-82 3-12 13zm89 3 3 4zm5 6 5.5 7.5-2-1zm-44 3 3.5.5-3.5.5zm15 0 6.5.5-6.5.5zm10 1 2.5.5-2.5.5zm-90 1-4 5zm96 0 2.5.5-2.5.5zm-39 1-1 2zm44 0 2.5.5-2.5.5zm-47 3 2 3zm4 3 1 2zm-65 1-7 8zm68 1 10 11zm-78 10-3 4zm89 2 2 3zm-93 3-3 4zm96 1 1 2zm-37 2 5.5.5-5.5.5zm10 0 7.5.5-7.5.5zm10 1 2.5.5-2.5.5zm19 0 2.5 3.5-2-1zm-102 1-2 3zm57 0-1 2zm31 0 2.5.5-2.5.5zm-91 4-3 4zm56 0v3q-3-1.5 0-3Zm-39 2-.5 1.5-3 5.5-2.5 1 3.5-4.5zm41 1 4.5 2.5-1.5-.5q-3.7-.2-3-2Zm-62 2-1 2zm68 1 1 2zm-70 2-2 3zm73 0 9.5 10.5-2-1zm-76 4-.5 1.5-2.5 3.5 1.5-2.5zm139 2q2.3-.7 1.5 1.5zm-123 1 1 2zm-20 3-1 2zm90 2 3.5 7-5-1.5 3-.5zm-93 3-1 2zm72 1 16.5.5-16.5.5zm-56 1-.5 1.5-1.5 2.5.5-1.5zm51 0 2.5.5-2.5.5zm-6 2 1.5.5-4.5 2.5 1-2zm-64 1-1 2zm59 2-2 4 1.5.5-1.5.5-1.5-1.5zm-44 2-.5 1.5-4.5 9.5-.5-1.5zm-18 1-.5 1.5-8.5 17.5-.5-1.5zm20 2 .5 1.5-1.5 2.5-.5-1.5zm43 0 8.5 4.5-1.5-.5-7-3zm11 6 1 2zm-57 1 .5 1.5-1.5 2.5-.5-1.5zm60 3 1 2zm-67 3 .5 1.5-1.5 2.5-.5-1.5zm95 1 7.5.5-8.5 1.5zm-45 4 7.5.5-7.5.5zm21 0 .5 2.5h-1zm-26 1 2.5.5-2.5.5zm-66 1 .5 1.5-1.5 2.5-.5-1.5zm23 1 .5 2.5-1.5 3.5-.5-2.5zm66 1 2 3zm-32 1-1 2zm-3 2-9 10zm-33 3 .5 2.5h-1zm-1 4 .5 2.5h-1zm-6 1 .5 2.5h-1zm30 3-2 3zm-31 1 .5 2.5h-1zm6 0 .5 2.5h-1zm-7 5 .5 3.5h-1zm28 0-1 2zm-22 1 .5 4.5h-1zm-7 5 .5 5.5h-1zm6 3 .5 20.5h-1zm17 2 .5 1.5-1.5 2.5-.5-1.5zm-24 4 .5 17.5h-1zm-24 3 .5 2.5h-1zm-1 4 .5 2.5h-1zm292 0 .5 2.5-1.5 2.5q-2.7-1.2-.5-2.5zm-293 5 .5 2.5h-1zm290 0 1 2zm-246 1 .5 2.5h-1zm245 1 1.5 2.5-3.5 5.5.5-1.5 2-5-3 1zm-120 1 .5 2.5h-1zm-170 1 .5 3.5h-1zm44 1 .5 3.5h-1zm-9 1 .5 4.5h-1zm251 1-4 5zm-258 2 .5 5.5h-1zm-29 1 .5 3.5h-1zm44 0 .5 4.5h-1zm244 1-1 2zm-8 2-2 3zm-243 1 .5 2.5h-1zm248 1-10 11zm-286 1 .5 3.5h-1zm44 0 .5 5.5h-1zm233 0-1 2zm-246 1 .5 2.5h-1zm243 1-1 2zm-3 2-1 2-2 1 1-2zm-239 2 .5 2.5h-1zm8 1 .5 2.5h-1zm-41 1 .5 4.5h-1zm100 0 4.5.5-4.5.5zm14 0 5.5.5-5.5.5zm150 0 1.5.5-7.5 3.5v-1zm-169 1 2.5.5-2.5.5zm27 0 3.5.5-3.5.5zm-78 1 .5 6.5-2-1zm84 0 2.5.5-2.5.5zm-94 1 .5 2.5h-1zm98 0 2.5.5-2.5.5zm142 0-3 4zm-138 1 2.5.5-2.5.5zm4 1 2.5.5-2.5.5zm4 1 2.5.5-2.5.5zm-63 1-1 2zm67 0 2.5.5-2.5.5zm121 0-1 2zm-172 1 6.5.5-6.5.5zm55 0 2.5.5-2.5.5zm-74 1-1 2zm9 0 3.5.5-3.5.5zm23 0 3.5.5-3.5.5zm47 0 2.5.5-2.5.5zm-158 1 .5 6.5h-1zm117 0 3.5.5-3.5.5zm45 0 3.5.5-3.5.5zm103 0-1 2zm-228 1 .5 2.5h-1zm85 0 2.5.5-2.5.5zm45 0 3.5.5-3.5.5zm-92 1-1.5 2.5 1 1-2.5 2.5-1.5-.5-2.5 3.5-.5-1.5zm51 0 2.5.5-2.5.5zm46 0 4.5.5-4.5.5zm57 0 3.5.5-3.5.5zm-51 1 4.5.5-4.5.5zm45 0 4.5.5-4.5.5zm-37 1 8.5.5-8.5.5zm26 0 8.5.5-8.5.5zm-62 5 2.5.5-2.5.5zm7 2 2.5.5-2.5.5zm-117 1 .5 2.5h-1zm124 1 2.5.5-2.5.5zm5 1 2.5.5-2.5.5zm61 0 2.5.5-2.5.5zm-56 1 3.5.5-3.5.5zm50 0 3.5.5-3.5.5zm-44 1 4.5.5-4.5.5zm37 0 4.5.5-4.5.5zm-176 1 .5 4.5h-1zm147 0 25.5.5-25.5.5zm-146 8 .5 12.5h-1zm7 1 2.5.5-2.5 3.5zm-49 7 .5 9.5h-1zm101 4 2.5.5-2.5.5zm-60 3 .5 3.5h-1zm-40 8 .5 4.5h-1zm1 8 .5 4.5h-1zm1 7 .5 3.5h-1zm31 2 .5 2.5h-1zm-30 3 .5 3.5h-1zm29 1 .5 3.5h-1zm-28 5 .5 2.5h-1zm27 0 .5 4.5h-1zm-26 4 .5 3.5h-1zm25 3 .5 7.5h-1zm-24 2 .5 2.5h-1zm1 4 .5 2.5h-1zm2 7 .5 2.5h-1zm21 16 .5 7.5h-1zm1 10 .5 5.5h-1zm-12 4 1.5 3.5h-1zm13 4 .5 4.5h-1zm-10 3 1.5 3.5h-1zm11 3 .5 2.5h-1zm1 5 .5 2.5h-1zm1 5 .5 2.5h-1zm112 1 .5 1.5-6.5 5.5q-3-1.5 0-3l1.5.5 1.5-2.5zm-117 3 3.5 6.5h-1zm108 3q3.5 2-1 4zm-2 1-1 2zm-5 3-1 2zm3 1-2 3zm-6 1-1 2zm-93 1 1 2zm90 1-1 2zm4 1-6 7zm-7 1-1 2zm-3 2-2 3zm-78 3-1 2zm74 0-8 9zm-74 3q2.3-.7 1.5 1.5zm78 1-4 5zm-5 6-2 3zm-10 2-2 3zm7 2-2 3zm-10 2-1 2zm6 4-1 2zm-9 1-.5 1.5-1.5 3.5-.5-1.5zm6 4-.5 1.5-1.5 3.5-.5-1.5zm-119 2q4.5-1 5.5 1.5l-2.5.5-3-1zm8 1 2.5.5-3.5 1.5zm6 1 2.5.5-2.5.5zm93 6 .5 2.5h-1zm-1 5 .5 2.5h-1zm5 5 .5 2.5h-1zm-6 3 .5 7.5h-1zm5 1 .5 2.5h-1zm-2 9 .5 3.5h-1zm-2 5 1.5 4.5-2-1zm-7 5 2.5.5q-2.1 3.3-2.5-.5Zm3 2 .5 2.5-2-1zm2 19 1 2zm2 3 3.5 4.5-3-2z"/><path fill="#b07a52" stroke="#b07a52" d="m346.5 46 37 1 1 1 17 2 11.5 3.5-21.5 3.5q-10.3 4.2-16.5 12.5-.8 2.6 2.5 1.5 19 5 30.5 17.5l5 8.5 2 .5-1.5.5-9-2h-19l-1 1H374l1.5 4q9.4 4.6 15.5 12.5l8 13 1 5.5-20.5-6-13-1-1-1H350l1.5 4 10.5 9.5 7 12 1 8-1.5-.5-22-9-22-4-.5 1.5 2.5 3.5 5.5 4.5q11.1 9.9 14 28l-3.5-2.5-18-9-18-4h-10l.5 1.5q-.7 2.3 1.5 1.5l13.5 14.5q5.5 7.5 7 19l-3.5-2.5-25-12-11-2h-8l7.5 8.5 11 18 1 7-3.5-2.5-22-11-19-3 .5 1.5 1.5 2.5 5.5 4.5 9 14 2 8.5q-8.9-6.8-21.5-11l-19-2-1 2 3 2 11.5 14.5 3 10.5q-6.6-4.2-16.5-6h-15l-10.5 4.5 12 9 4 6v3.5l-7.5-2h-20q-21.2 4.8-33.5 18.5-8.3 10.7-13 25l-5 31 2-1q7.4-19.1 20.5-32.5 9.2-8.3 23-12l10-2h19l1 1 17 2q5.8-1.2 8.5-5.5l2.5-8.5 9 19q6.9.9 8.5-3.5l3-5 1-9 1.5-2.5q7.1 9.6 9.5 23 8.2.4 11-5.5l3-7 .5-13.5 8.5 13.5 4 12.5h2.5l6.5-5.5q4.7-8.8 4.5-22.5 8.4 9.3 11.5 23h3.5l5.5-5.5 4-10 .5-14.5q8.6 8.6 11.5 22 5.6-.1 8-4.5l5-12 .5-14.5 10 18q7.1-.9 9.5-6.5l6-14 .5-8.5 2.5 6.5v20q-2.8 13.7-9 24L365 321l-26.5 19-24 10-16 4-14 1-1 1h-27l-1-1-23-2-12-3-32-3-1 1h-17l-13 3q-12.9 4.6-20.5 14.5-14.4 23.1-11 64l7 37 9 25 16 32 17.5 25.5.5-2.5-2-3v-5l-4-18v-21l3-12 4-9 13.5-16.5 23-14 34-11 13-7 .5 10.5-1 1-1 14-6 19q-9.1 20.4-25.5 33.5-14.6 12.4-35 19l-5.5 5.5q-5.7 7.3-4 22l5 16 23 40 17 36 7 21 4 18 1 15 1 1v23l-4 19-3 8q-5.9 13.1-16.5 21.5-9.6 8.4-25 11v-1l4-2 13.5-13.5q20.7-25.3 19-73l-1-1v-8l-3-12v-5q-4.5-20.5-12-38l-16-32q-8.2-13.7-19.5-24.5l-3-2q-10.4-12.6-27-19h-31l-19-5q-23-9.5-37.5-27.5-10.6-12.4-18-28l15.5-1.5 1-1h24l20 5 14 7 17.5 16.5 10 16-11.5-10.5q-10.2-8.8-24-14l-13-4-22-3v1l13 3 16 7 22 13 26 22q17.2 8.8 30 22l.5-1.5-16-26-44-63-24-47q-9.8-24.7-16-53l-2-21-1-1v-10l-1-1v-29l1-1v-13l1-1 1-14 5-23 11-33 11-23q27.5-51 69.5-87.5 35.4-31.6 81-53l21-9 19-6 31-7 17-1zm-2.5 6-1 1-16 1-25 6-26 9-22 10q-48 24-84 60-37 35-60 84l-11 28-5 17-5 25-1 17-1 1v42l1 1 1 17 4 21 6 22 8 22 22 44 2 1-7-22-4-21-1-17-1-1v-20l1-1 1-15 10-36-1-20-6-20-4-23v-23l5-26q10-30 27-52l3-2-7 10-12 25-7 23-2 18-1 1 1 28 3 15 4 7v-10l4-22q5-20 16-34 8-13 25-17 12-2 19 3l3 5h1v-8l-6-11q-6-7-16-9l4-4 13-5h21l5 2-5-10q-8-10-20-15l1-2 5-4 11-2 18 2 17 5 1 1-9-15q-5-9-14-13l-3-4 6-3 9-2 20 1 25 6 1 1-8-13q-8-10-19-15-3 1-2-2l9-4h19q1 2 6 1l23 7 1 1-6-10q-8-11-21-16l5-4 8-2q24 0 40 8l-7-11-10-9q-3 1-2-1l11-5h17l1 1h3l15-12 15-5-5-2zm42 219-7 11-17 14-20 10-20 6-11 1-1 1h-10l-1 1-28-1-27-5-36-9h-19l-11 3q-14 6-23 17l1 1q8-10 24-12h18q1 2 6 1 25 5 48 14l16 3h7l1 1h25l26-5q22-7 39-21 13-11 20-28zM236 455l-32 21q-12 9-19 23l-5 13-1 12-1 1 1 18 2 1 1-11 6-22q8-18 20-31l28-23z"/><path fill="#e1c9b7" stroke="#e1c9b7" d="m345.5 45 27.5.5-27.5.5zm-11 1 3.5.5-3.5.5zm46 0 4.5.5-4.5.5zm-53 1 2.5.5-2.5.5zm62 0 2.5.5-2.5.5zm11 2 2.5.5-2.5.5zm-88 1 2.5.5-2.5.5zm106 4q4-.5 4.5 2.5l-3 .5-.5-2-1 1h-15v-1h14zm-21 2 2.5.5-2.5.5zm-4 1 2.5.5-2.5.5zm-8 4-1 2zm-3 2-5 7 1.5.5-1.5.5-1.5-1.5zm15 15 1 2zm3 2 2 3zm5 4 3 4zm-181 2-1 2zm-3 2-1 2zm189 2 2 3zm-194 1-1 2zm-3 2-1 2zm-3 2-1 2zm204 1 1.5 2.5h-1zm-207 1-1 2zm174 0 4.5.5-4.5.5zm23 0 3.5.5-3.5.5zm-201 3-1 2zm-3 2-2 3zm184 3 7 8zm-189 1-1 2zm-4 3-1 2zm-4 3-2 3zm206 3 2 3zm-212 2-2 3zm-6 5-5 6zm190 3 3.5.5-3.5.5zm8 1 2.5.5-2.5.5zm-20 1 9 10zm11 12 1 2zm-212 6-5 6zm172.5 0 3 .5-2.5 1.5zm7.5 1 2.5.5-2.5.5zm5 1 2.5.5-2.5.5zm-9 1 4 5zm-185 7-2 3zm192 1 2 3zm33 2 2.5 1.5-1.5.5zm-229 2-3 4zm199 0 1 2zm3 5 1 2zm-207 1-1 2zm163 0 4.5.5-4.5.5zm9 1 3.5.5-3.5.5zm-7 1 9 10zm13 0 2.5.5-2.5.5zm-181 2-1 2zm-3 4-1 2zm-2 3-1 2zm211 0 1 2zm9 0 .5 2.5h-1zm-36 3 2 3zm-187 1-1 2zm220 0 3.5 2.5-1.5.5zm-222 3-1 2zm152 2 6.5 7.5-7-6zm-154 1-1 2zm159 0 4.5.5-4.5.5zm-162 5-1 2zm165 4 1 2zm-168 1-1 2zm199 2 1 2zm7 0 .5 5-4-1.5 1.5.5h1.5zm-35 1 1 2zm-33 4 2.5.5-2.5.5zm6 1 2.5.5-2.5.5zm-7 1 4 5zm27 6 3.5 2.5-1.5-.5zm-21 1 2 3zm28 3 1 2zm-24 3 1 2zm28 0 3.5 2.5-1.5.5zm-63 3 10.5.5-10.5.5zm2 2 4 5zm7 8 1 2zm27 1 1 2zm-47 11 7.5.5-7.5.5zm172.5 0q2.7-1.1 2 1.5l1 2h-1l-.5-1.5-1 7zm-162.5 1 3.5.5-3.5.5zm17 1 .5 2.5h-1zm-40 1 1.5.5-2 1 .5 1.5q-3-1.5 0-3Zm3 3 1 2zm4 3 3 4zm183 0 .5 2.5h-1zm-31.5 3 3 1.5h-3zm3.5 3 1 2zm2 3 1 2zm-29 2 1 2-2.5-.5zm-143 1 7.5.5-7.5.5zm174 0 1 2zm-151 2-1 2zm123 1 1 2zm30 0 1.5 3.5h-1zm-33 1 .5 8.5h-1zm-25 2 1 2-2.5-.5zm68 0-3 4zm-211 2-1 2zm223 0 .5 2.5h-1zm-226 2-1 2zm120 0 .5 11.5h-1zm29 0 1 2zm58 0 2.5.5q-2.1 3.3-2.5-.5Zm-210 2-1 2zm97.5 0 5 3.5-4-2-.5 6.5zm27.5 0 2 3zm-48 2 2 3-2.5-1.5-.5 1.5-.5-1.5zm78 1 1 2zm18 1 .5 2.5h-1zm-255 1 .5 2.5h-1zm277 0-1 2zm-47 2 .5 2.5h-1zm-156 1-2 3zm166 0 1.5 3.5h-1zm-241 3 .5 3.5h-1zm215 0 1.5 2.5h-1zm39 1-1 2zm-99 1-1 2zm-84 1-1 2zm40 0 4.5.5-4.5.5zm17 0 4.5.5-4.5.5zm124 1-4 5zm-109 1 2.5.5-2.5.5zm35 0-1 2zm-179 1 .5 4.5h-1zm91 3 1.5.5-4.5 2.5 1-2zm112 0-3 4zm-33 1 1 2zm134 1-1 2zm-218 1-1 2zm138 0-1 2zm-141 2-1 2zm-84 1 .5 5.5h-1zm302 1-1 2zm-222 1-4 5zm220 2-2 3zm-226 5-1 2zm222 0-2 3zm-297 3 .5 33.5h-1zm63 6 .5 2.5h-1zm5 2-1 2zm217 1-4 5zm-223 4 .5 2.5h-1zm217 1-2 3zm-4 3-1 2zm-3 2-1 2zm-3 2-1 2zm-5 3-1 2zm-165 9 23.5.5-23.5.5zm-8 1 3.5.5-3.5.5zm36 0 4.5.5-4.5.5zm9 1 3.5.5-3.5.5zm14 2 2.5.5-2.5.5zm-72 1 1.5.5-6.5 3.5 1-2zm77 0 3.5.5-3.5.5zm7 1 2.5.5-2.5.5zm59 0 2.5.5-2.5.5zm-220 1 .5 5.5h-1zm169 0 2.5.5-2.5.5zm44 0 3.5.5-3.5.5zm-35 1 6.5.5-6.5.5zm22 0 7.5.5-7.5.5zm-130 1-1 2zm-4 3-4 5zm-65 5 .5 3.5h-1zm58 4-1 2zm-57 3 .5 3.5h-1zm1 7 .5 2.5h-1zm48 12 .5 2.5h-1zm-2 18 .5 11.5h-1zm1 20 .5 3.5h-1zm132 0 2.5.5v12h-1v-11l-1.5-.5-1.5.5zm-131 8 .5 3.5h-1zm1 7 .5 2.5h-1zm64 14-1 2zm-4 3-3 4zm-76 8 2.5 3.5-2-1zm69 0-1 2zm-3 4-1 2zm-62 3 1 2zm60 0-1 2zm-57 5 1 2zm2 3 1 2zm126 1-1 2zm-191 4 5.5.5-5.5.5zm21 0 5.5.5-5.5.5zm-30 1 3.5.5-3.5.5zm39 0 2.5.5-2.5.5zm157 1-1 2zm-117 1 1 2zm43 1 .5 2.5h-1zm71 2-8 9zm-72 3 .5 4.5h-1zm-52 3 1 2zm16 0 1 2zm-12 3 2 3zm14 0 1 2zm96 1-3 4zm-141 1 1.5.5-2.5 1.5zm48 2 1 2zm-88 1 1 2zm176 0-2 3zm-86 2 1 2zm-35 3 1 2zm27 1 2 3zm-77 1 1 2zm64 0 1 2zm97 0-1 2zm-47 1 .5 4.5h-1zm-24 1 1 2zm-21 1 1 2zm11 0 1 2zm76 0-1 2-5 2v-1zm-152 2 4 5zm88 0 1 2zm-19 1 2 3zm21 2 1 2zm-24 2 1 2zm9 1 7 8zm17 0 1 2zm-85 1 5 6zm96 0 1 2zm29 1-3 4zm-49 1 1 2zm-10 1 2 3zm22 0 1 2zm10 0 1 2zm7 0 .5 2.5h-1zm-15 3 1 2zm10 0 1 2zm21 0-.5 1.5-.5 1.5-.5-1.5zm-113 1 2 3zm72 2 .5 1.5-.5 1.5q2.3-.7 1.5 1.5l-4-3h2zm12 0 1 2zm-80 1 1 2zm62 0 4 5zm29 1 1 2zm-88 1 1 2zm80 1 1 2zm12 1-1 2zm-26 2 2 3zm20 6 1 2zm-52 3 3.5.5-3.5.5zm21 0 8.5.5-8.5.5zm48 1 .5 2.5h-1zm-21 1 1 2zm4 3 2 3zm5 0 1 2zm-12 3 1 2zm14 0 1 2zm-2 1q2.3 4.2 4.5 2.5l-1.5 1.5zm-9 1 1 2zm5 4 5 6zm25 11 1 2zm-13 1 4 5zm7 8 2 3zm3 4 1 2zm12 3 1 2zm4 7 1 2zm4 7 1 2zm14 64 .5 2.5h-1zm1 5 .5 2.5h-1zm1 5 .5 3.5h-1zm13 2 .5 2.5h-1zm-12 6 .5 4.5h-1zm13 1 .5 2.5h-1zm1 9 .5 8.5h-1zm-14 12 .5 5.5h-1zm14 4 .5 9.5h-1zm-15 5 .5 3.5h-1zm-1 6 .5 2.5h-1zm15 2 .5 2.5h-1zm-27 31-1 2zm16 1-1 2zm-18 2-2 3zm14 3-7 8zm-18 2-11 12zm8 7-1 2zm-5 3-1 2-1.5-.5zm-16 2-2 3zm-4 3v3q-2.2.8-1.5-1.5zm2 1 3.5.5-3.5.5z" opacity=".243"/></svg>